<svg width="886" height="894" viewBox="0 0 886 894" fill="none" xmlns="http://www.w3.org/2000/svg">
<g clip-path="url(#clip0_24_66)">
<path d="M886 0H0V894H886V0Z" fill="white"/>
<path d="M591.78 240.281C635.445 240.281 670.84 204.849 670.84 161.141C670.84 117.433 635.445 82 591.78 82C548.115 82 512.717 117.433 512.717 161.141C512.717 204.849 548.115 240.281 591.78 240.281Z" stroke="#262262" stroke-width="14" stroke-linecap="round" stroke-linejoin="round"/>
<path d="M592.001 221C625.139 221 652 194.137 652 161C652 127.863 625.139 101 592.001 101C558.864 101 532 127.863 532 161C532 194.137 558.864 221 592.001 221Z" fill="#F9B52D"/>
<path d="M590.625 82.4692V239.86M669.249 161.156H512M647.422 215.578L533.828 106.75M535.388 217.157L645.858 105.172" stroke="#262262" stroke-width="13" stroke-linecap="round" stroke-linejoin="round"/>
<line x1="359.135" y1="111.128" x2="408.128" y2="203.865" stroke="#262262" stroke-width="15" stroke-linecap="round"/>
<line x1="294.677" y1="95.5569" x2="358.348" y2="110.025" stroke="#262262" stroke-width="15" stroke-linecap="round"/>
<rect x="411.4" y="178" width="48.8" height="24" fill="white"/>
<path d="M326 192C326 175.984 338.984 163 355 163H563C579.016 163 592 175.984 592 192V513H326V192Z" fill="white" stroke="#262262" stroke-width="16"/>
<rect x="366.5" y="208.5" width="185" height="74" rx="12.5" stroke="#262262" stroke-width="15"/>
<circle cx="377" cy="331" r="15" fill="#F9B52D"/>
<circle cx="459" cy="331" r="15" fill="#F9B52D"/>
<circle cx="541" cy="331" r="15" fill="#F9B52D"/>
<circle cx="377" cy="392" r="15" fill="#F9B52D"/>
<circle cx="459" cy="392" r="15" fill="#F9B52D"/>
<circle cx="541" cy="392" r="15" fill="#F9B52D"/>
<circle cx="377" cy="453" r="15" fill="#F9B52D"/>
<circle cx="459" cy="453" r="15" fill="#F9B52D"/>
<circle cx="541" cy="453" r="15" fill="#F9B52D"/>
<rect x="164" y="513" width="590" height="181" rx="33" stroke="#262262" stroke-width="16"/>
<path d="M255.9 640.4C250.367 640.4 245.233 639.533 240.5 637.8C235.833 636 231.767 633.467 228.3 630.2C224.9 626.933 222.233 623.1 220.3 618.7C218.367 614.233 217.4 609.333 217.4 604C217.4 598.667 218.367 593.8 220.3 589.4C222.233 584.933 224.9 581.067 228.3 577.8C231.767 574.533 235.833 572.033 240.5 570.3C245.233 568.5 250.367 567.6 255.9 567.6C262.367 567.6 268.133 568.733 273.2 571C278.333 573.267 282.6 576.533 286 580.8L273.4 592.2C271.133 589.533 268.633 587.5 265.9 586.1C263.233 584.7 260.233 584 256.9 584C254.033 584 251.4 584.467 249 585.4C246.6 586.333 244.533 587.7 242.8 589.5C241.133 591.233 239.8 593.333 238.8 595.8C237.867 598.267 237.4 601 237.4 604C237.4 607 237.867 609.733 238.8 612.2C239.8 614.667 241.133 616.8 242.8 618.6C244.533 620.333 246.6 621.667 249 622.6C251.4 623.533 254.033 624 256.9 624C260.233 624 263.233 623.3 265.9 621.9C268.633 620.5 271.133 618.467 273.4 615.8L286 627.2C282.6 631.4 278.333 634.667 273.2 637C268.133 639.267 262.367 640.4 255.9 640.4ZM353.628 569H373.428V639H353.628V569ZM326.628 639H306.828V569H326.628V639ZM355.028 611.7H325.228V595.3H355.028V611.7ZM390.995 639L421.895 569H441.395L472.395 639H451.795L427.595 578.7H435.395L411.195 639H390.995ZM407.895 625.4L412.995 610.8H447.195L452.295 625.4H407.895ZM490.008 639V569H522.008C528.408 569 533.908 570.033 538.508 572.1C543.174 574.167 546.774 577.167 549.308 581.1C551.841 584.967 553.108 589.567 553.108 594.9C553.108 600.167 551.841 604.733 549.308 608.6C546.774 612.4 543.174 615.333 538.508 617.4C533.908 619.4 528.408 620.4 522.008 620.4H501.008L509.808 612.1V639H490.008ZM533.308 639L515.908 613.5H537.008L554.508 639H533.308ZM509.808 614.2L501.008 605.1H520.808C524.941 605.1 528.008 604.2 530.008 602.4C532.074 600.6 533.108 598.1 533.108 594.9C533.108 591.633 532.074 589.1 530.008 587.3C528.008 585.5 524.941 584.6 520.808 584.6H501.008L509.808 575.5V614.2ZM576.031 639V569H595.831V623.3H629.231V639H576.031ZM659.638 639V609.4L664.238 621.3L632.937 569H653.838L676.438 606.9H664.337L687.038 569H706.238L675.038 621.3L679.438 609.4V639H659.638Z" fill="#262262"/>
</g>
<defs>
<clipPath id="clip0_24_66">
<rect width="886" height="894" fill="white"/>
</clipPath>
</defs>
</svg>
